<svg xmlns="http://www.w3.org/2000/svg" width="261.626" height="38.474" viewBox="0 0 261.626 38.474"><path d="M-560.424,2341.434a12.631,12.631,0,0,1,4.678-5.137,12.421,12.421,0,0,1,6.6-1.8,11.591,11.591,0,0,1,5.573,1.285,11.34,11.34,0,0,1,3.83,3.237v-4.061h7.242v28.462h-7.242v-4.161a10.733,10.733,0,0,1-3.83,3.313,11.718,11.718,0,0,1-5.626,1.309,12.1,12.1,0,0,1-6.546-1.848,12.934,12.934,0,0,1-4.678-5.216,16.767,16.767,0,0,1-1.721-7.729A16.512,16.512,0,0,1-560.424,2341.434Zm19.651,3.262a7.3,7.3,0,0,0-2.777-2.878,7.4,7.4,0,0,0-3.749-1,7.264,7.264,0,0,0-3.7.976,7.353,7.353,0,0,0-2.749,2.849,8.967,8.967,0,0,0-1.053,4.447,9.261,9.261,0,0,0,1.053,4.5,7.592,7.592,0,0,0,2.772,2.951,7.036,7.036,0,0,0,3.674,1.027,7.413,7.413,0,0,0,3.749-1,7.29,7.29,0,0,0,2.777-2.879,9.232,9.232,0,0,0,1.029-4.492A9.237,9.237,0,0,0-540.773,2344.7Z" transform="translate(562.145 -2325.409)" fill="#fff"/><path d="M-545.784,2332.228v38.013h-7.195v-38.013Z" transform="translate(589.656 -2332.228)" fill="#fff"/><path d="M-521.774,2351.35h-20.8a7.07,7.07,0,0,0,2.157,4.826,6.66,6.66,0,0,0,4.678,1.749,5.871,5.871,0,0,0,5.7-3.441h7.759a12.941,12.941,0,0,1-4.726,6.753,13.782,13.782,0,0,1-8.579,2.646,14.871,14.871,0,0,1-7.37-1.82,12.877,12.877,0,0,1-5.086-5.166,15.811,15.811,0,0,1-1.824-7.7,16.1,16.1,0,0,1,1.8-7.759,12.548,12.548,0,0,1,5.03-5.137,15.069,15.069,0,0,1,7.451-1.8,14.973,14.973,0,0,1,7.27,1.748,12.329,12.329,0,0,1,4.982,4.956,15.01,15.01,0,0,1,1.773,7.374A16.68,16.68,0,0,1-521.774,2351.35Zm-7.243-4.83a5.7,5.7,0,0,0-2-4.441,7.093,7.093,0,0,0-4.778-1.667,6.528,6.528,0,0,0-4.5,1.616,7.094,7.094,0,0,0-2.233,4.492Z" transform="translate(598.982 -2325.409)" fill="#fff"/><path d="M-523.421,2363.078l-5.854-8.837-5.186,8.837h-7.707l9.3-14.286-9.4-14.178h8.115l5.806,8.788,5.242-8.788h7.7l-9.347,14.178,9.451,14.286Z" transform="translate(621.792 -2325.063)" fill="#fff"/><path d="M-533.3,2341.434a12.627,12.627,0,0,1,4.678-5.137,12.418,12.418,0,0,1,6.6-1.8,11.6,11.6,0,0,1,5.574,1.285,11.339,11.339,0,0,1,3.829,3.237v-4.061h7.243v28.462h-7.243v-4.161a10.725,10.725,0,0,1-3.829,3.313,11.721,11.721,0,0,1-5.626,1.309,12.1,12.1,0,0,1-6.546-1.848,12.929,12.929,0,0,1-4.678-5.216,16.765,16.765,0,0,1-1.721-7.729A16.51,16.51,0,0,1-533.3,2341.434Zm19.651,3.262a7.3,7.3,0,0,0-2.777-2.878,7.4,7.4,0,0,0-3.749-1,7.263,7.263,0,0,0-3.7.976,7.354,7.354,0,0,0-2.749,2.849,8.966,8.966,0,0,0-1.052,4.447,9.26,9.26,0,0,0,1.052,4.5,7.594,7.594,0,0,0,2.773,2.951,7.033,7.033,0,0,0,3.673,1.027,7.414,7.414,0,0,0,3.749-1,7.29,7.29,0,0,0,2.777-2.879,9.236,9.236,0,0,0,1.028-4.492A9.242,9.242,0,0,0-513.647,2344.7Z" transform="translate(643.562 -2325.409)" fill="#fff"/><path d="M-501.86,2337.721q3.133,3.212,3.133,8.968v16.695h-7.195v-15.722a7.382,7.382,0,0,0-1.693-5.213,6,6,0,0,0-4.626-1.825,6.142,6.142,0,0,0-4.7,1.825,7.3,7.3,0,0,0-1.721,5.213v15.722h-7.195V2334.92h7.195v3.547a9.908,9.908,0,0,1,3.673-2.906,11.457,11.457,0,0,1,4.906-1.05A10.968,10.968,0,0,1-501.86,2337.721Z" transform="translate(671.073 -2325.369)" fill="#fff"/><path d="M-516.108,2348.252a12.556,12.556,0,0,1,4.7-5.137,12.566,12.566,0,0,1,6.63-1.8,12.092,12.092,0,0,1,5.29,1.21,10.585,10.585,0,0,1,4.006,3.209v-13.509h7.295v38.013h-7.295v-4.214a9.74,9.74,0,0,1-3.75,3.39,11.762,11.762,0,0,1-5.6,1.284,12.221,12.221,0,0,1-6.574-1.848,12.853,12.853,0,0,1-4.7-5.215,16.72,16.72,0,0,1-1.721-7.73A16.461,16.461,0,0,1-516.108,2348.252Zm19.647,3.262a7.244,7.244,0,0,0-2.773-2.876,7.4,7.4,0,0,0-3.749-1,7.249,7.249,0,0,0-3.7.977,7.31,7.31,0,0,0-2.749,2.849,8.913,8.913,0,0,0-1.056,4.445,9.226,9.226,0,0,0,1.056,4.5,7.557,7.557,0,0,0,2.773,2.948,7.021,7.021,0,0,0,3.673,1.029,7.405,7.405,0,0,0,3.749-1,7.262,7.262,0,0,0,2.773-2.879,9.236,9.236,0,0,0,1.028-4.493A9.236,9.236,0,0,0-496.461,2351.514Z" transform="translate(695.156 -2332.228)" fill="#fff"/><path d="M-481.027,2351.35h-20.8a7.052,7.052,0,0,0,2.157,4.826,6.657,6.657,0,0,0,4.674,1.749,5.872,5.872,0,0,0,5.7-3.441h7.759a12.969,12.969,0,0,1-4.73,6.753,13.77,13.77,0,0,1-8.575,2.646,14.872,14.872,0,0,1-7.371-1.82,12.825,12.825,0,0,1-5.086-5.166,15.8,15.8,0,0,1-1.825-7.7,16.1,16.1,0,0,1,1.8-7.759,12.582,12.582,0,0,1,5.034-5.137,15.071,15.071,0,0,1,7.451-1.8,14.959,14.959,0,0,1,7.267,1.748,12.307,12.307,0,0,1,4.982,4.956,14.97,14.97,0,0,1,1.773,7.374A17.142,17.142,0,0,1-481.027,2351.35Zm-7.243-4.83a5.7,5.7,0,0,0-2-4.441,7.075,7.075,0,0,0-4.773-1.667,6.521,6.521,0,0,0-4.5,1.616,7.1,7.1,0,0,0-2.237,4.492Z" transform="translate(721.281 -2325.409)" fill="#fff"/><path d="M-489.93,2335.8a10.09,10.09,0,0,1,5.114-1.286v7.549h-1.9a7.279,7.279,0,0,0-5.114,1.6q-1.722,1.588-1.72,5.549v14.178h-7.191V2334.92h7.191v4.422A10.109,10.109,0,0,1-489.93,2335.8Z" transform="translate(746.442 -2325.369)" fill="#fff"/></svg>