<?xml version="1.0" encoding="UTF-8"?><svg id="Capa_2" xmlns="http://www.w3.org/2000/svg" xmlns:xlink="http://www.w3.org/1999/xlink" viewBox="0 0 489.55 122.44"><defs><style>.cls-1{fill:url(#Degradado_sin_nombre_15-2);}.cls-2{fill:url(#Degradado_sin_nombre_15);}.cls-3{fill:url(#Degradado_sin_nombre_15-3);}.cls-4{fill:url(#Degradado_sin_nombre_15-4);}.cls-5{fill:#27aa60;font-family:Poppins-Light, Poppins;font-size:76.35px;}</style><linearGradient id="Degradado_sin_nombre_15" x1="184.24" y1="-384.11" x2="236.62" y2="-384.11" gradientTransform="translate(410.49 287.12) rotate(-90)" gradientUnits="userSpaceOnUse"><stop offset="0" stop-color="#27aa60"/><stop offset="1" stop-color="#63b32f"/></linearGradient><linearGradient id="Degradado_sin_nombre_15-2" x1="222.92" y1="-380.01" x2="259.04" y2="-380.01" xlink:href="#Degradado_sin_nombre_15"/><linearGradient id="Degradado_sin_nombre_15-3" x1="212.32" y1="927.53" x2="264.7" y2="927.53" gradientTransform="translate(1006.69 287.12) rotate(-90) scale(1 -1)" xlink:href="#Degradado_sin_nombre_15"/><linearGradient id="Degradado_sin_nombre_15-4" x1="251" y1="931.63" x2="287.12" y2="931.63" gradientTransform="translate(1006.69 287.12) rotate(-90) scale(1 -1)" xlink:href="#Degradado_sin_nombre_15"/></defs><g id="Capa_1-2"><text class="cls-5" transform="translate(111.41 79.38)"><tspan x="0" y="0">alexander</tspan></text><g><path class="cls-2" d="M8.07,50.49c-1.33,.9-2.21,2.43-2.21,4.17s.79,3.11,2.01,4.02l.02,.02c.29,.22,.61,.4,.96,.55l9.95,5.75,13.95,8.05,17.73,10.24,.82,.48c.9,.68,1.47,1.76,1.47,2.97v12.42c0,2.06-1.67,3.73-3.73,3.73-.65,0-1.25-.16-1.78-.45L8.86,80.26l-.41-.23-.11-.07c-2.31-1.41-4.27-3.34-5.71-5.63-1.67-2.66-2.64-5.82-2.64-9.19s1.02-6.69,2.77-9.4c1.36-2.11,3.18-3.9,5.3-5.25Z"/><path class="cls-1" d="M52.74,43.92v-12.11c0-2.06-1.67-3.73-3.73-3.73-.58,0-1.13,.13-1.61,.37h-.02s-.42,.25-.42,.25l-.03,.02L9.97,50.05c-1.06,.92-1.74,2.28-1.74,3.8,0,1.65,.79,3.11,2.01,4.02l.02,.02,.96,.55,9.95,5.75,13.83-7.98,16.5-9.53c.75-.68,1.23-1.66,1.23-2.76Z"/><path class="cls-3" d="M97.48,22.41c1.33,.9,2.21,2.43,2.21,4.17,0,1.65-.79,3.11-2.01,4.02l-.02,.02c-.29,.22-.61,.4-.96,.55l-9.95,5.75-13.95,8.05-17.73,10.24-.82,.48c-.9,.68-1.47,1.76-1.47,2.97v12.42c0,2.06,1.67,3.73,3.73,3.73,.65,0,1.25-.16,1.78-.45l38.4-22.17,.41-.23,.11-.07c2.31-1.41,4.27-3.34,5.71-5.63,1.67-2.66,2.64-5.82,2.64-9.19,0-3.46-1.02-6.69-2.77-9.4-1.36-2.11-3.18-3.9-5.3-5.25Z"/><path class="cls-4" d="M52.81,15.84V3.73c0-2.06,1.67-3.73,3.73-3.73,.58,0,1.13,.13,1.61,.37h.02s.42,.25,.42,.25l.03,.02,36.95,21.34c1.06,.92,1.74,2.28,1.74,3.8,0,1.65-.79,3.11-2.01,4.02l-.02,.02-.96,.55-9.95,5.75-13.83-7.98-16.5-9.53c-.75-.68-1.23-1.66-1.23-2.76Z"/></g></g></svg>