<svg xmlns="http://www.w3.org/2000/svg" width="18.226" height="18.126" viewBox="0 0 18.226 18.126"><path d="M1582.317,1463.187l-1.519-1.756,1.121-2.033-2.1-.986.2-2.313-2.321-.046-.761-2.193-2.139.9-1.588-1.694-1.587,1.694-2.139-.9-.761,2.193-2.321.046.2,2.313-2.1.986,1.12,2.033-1.519,1.756,1.851,1.4-.673,2.222,2.261.528.289,2.3,2.28-.437,1.2,1.987,1.905-1.327,1.905,1.327,1.2-1.987,2.28.437.289-2.3,2.261-.528-.673-2.222Zm-9.113,4.551a5.609,5.609,0,1,1,5.609-5.609A5.609,5.609,0,0,1,1573.2,1467.737Z" transform="translate(-1564.091 -1453.066)" fill="#70b62d"/></svg>